# xmcd
#
# Track frame offsets: 
#        150
#        17718
#        33011
#        47421
#        61993
#        75819
#        94417
#        106707
#        121888
#        135406
#        150788
#        164032
#        189803
#
# Disc length: 3684 seconds
#
# Revision: 0
# Processed by: cddbd v1.4PL0 Copyright (c) Steve Scherf et al.
# Submitted via: ExactAudioCopy v0.90b4
#
DISCID=860e620d
DTITLE=Sandy Madaris - Way Back Home
DYEAR=2001
DGENRE=Folk
TTITLE0=Man with a Loaded Gun
TTITLE1=Way Back Home
TTITLE2=Waterline
TTITLE3=Been So Long
TTITLE4=Dad Is Drunk
TTITLE5=Hey Hector (Omega Mix)
TTITLE6=Whatta You Done To Elvis, Dr. Nick?
TTITLE7=If and When
TTITLE8=Rockin' At The End Of The World
TTITLE9=Never Knew You
TTITLE10=Only One Way
TTITLE11=Tonight With You In Tennessee
TTITLE12=(data track)
EXTD=
EXTT0=
EXTT1=
EXTT2=
EXTT3=
EXTT4=
EXTT5=
EXTT6=
EXTT7=
EXTT8=
EXTT9=
EXTT10=
EXTT11=
EXTT12=
PLAYORDER=
